<svg xmlns="http://www.w3.org/2000/svg" width="512" height="512" viewBox="0 0 512 512">
  <defs>
    <style>
      .cls-1{fill:#1e90ff}
      .cls-2{fill:#1e90ff}
      .text{font-family:Inter, Arial, sans-serif; font-weight:700; font-size:72px; fill:#1e90ff}
    </style>
  </defs>
  <!-- Play triangle -->
  <path class="cls-1" d="M128 96c-8.8 0-16 7.2-16 16v288c0 8.8 7.2 16 16 16 4.1 0 8.2-1.4 11.6-4.2l224-160c6.9-4.9 6.9-15.7 0-20.6L139.6 100.2C136.2 97.4 132.1 96 128 96z"/>
  <!-- Breeze waves -->
  <path class="cls-2" d="M384 176c12 0 24-6 32-14 6-6 6-16 0-22-12-12-32-16-46-8-14 8-26 22-26 44 0 12 10 20 20 20z"/>
  <path class="cls-2" d="M384 216c14 0 28-6 38-16 8-8 8-20 0-28-16-14-40-18-60-8-18 10-34 28-34 56 0 14 12 24 26 24z"/>
  <!-- Text (separate for scaling) -->
  <text x="64" y="460" class="text">TuBreeze</text>
</svg>
